<mxfile host="drawio-plugin" modified="2024-08-19T10:41:11.229Z" agent="Mozilla/5.0 (Windows NT 10.0; Win64; x64) AppleWebKit/537.36 (KHTML, like Gecko) Chrome/122.0.0.0 Safari/537.36" etag="J19QmbQdQtWpNHRp7AF2" version="22.1.22" type="embed">
  <diagram id="R2lEEEUBdFMjLlhIrx00" name="Page-1">
    <mxGraphModel dx="565" dy="1199" grid="0" gridSize="10" guides="1" tooltips="1" connect="1" arrows="1" fold="1" page="0" pageScale="1" pageWidth="850" pageHeight="1100" background="#FFFFFF" math="0" shadow="0" extFonts="Permanent Marker^https://fonts.googleapis.com/css?family=Permanent+Marker">
      <root>
        <mxCell id="0" />
        <mxCell id="1" parent="0" />
        <mxCell id="wSJQeO-UcG-I0Lwt5dV8-1" value="User" style="swimlane;fontStyle=2;align=center;verticalAlign=top;childLayout=stackLayout;horizontal=1;startSize=26;horizontalStack=0;resizeParent=1;resizeLast=0;collapsible=1;marginBottom=0;rounded=0;shadow=0;strokeWidth=1;" parent="1" vertex="1">
          <mxGeometry x="110" y="211" width="230" height="185" as="geometry">
            <mxRectangle x="230" y="140" width="160" height="26" as="alternateBounds" />
          </mxGeometry>
        </mxCell>
        <mxCell id="wSJQeO-UcG-I0Lwt5dV8-89" value="id : INT NOT NULL &lt;pk, ak&gt;" style="text;align=left;verticalAlign=top;spacingLeft=4;spacingRight=4;overflow=hidden;rotatable=0;points=[[0,0.5],[1,0.5]];portConstraint=eastwest;rounded=0;shadow=0;html=0;" parent="wSJQeO-UcG-I0Lwt5dV8-1" vertex="1">
          <mxGeometry y="26" width="230" height="26" as="geometry" />
        </mxCell>
        <mxCell id="ZdTXPuzufcbKDvEH7oUk-1" value="username : VARCHAR(255) NOT NULL" style="text;align=left;verticalAlign=top;spacingLeft=4;spacingRight=4;overflow=hidden;rotatable=0;points=[[0,0.5],[1,0.5]];portConstraint=eastwest;rounded=0;shadow=0;html=0;" parent="wSJQeO-UcG-I0Lwt5dV8-1" vertex="1">
          <mxGeometry y="52" width="230" height="26" as="geometry" />
        </mxCell>
        <mxCell id="wSJQeO-UcG-I0Lwt5dV8-5" value="email : VARCHAR(255) NOT NULL &lt;U&gt;" style="text;align=left;verticalAlign=top;spacingLeft=4;spacingRight=4;overflow=hidden;rotatable=0;points=[[0,0.5],[1,0.5]];portConstraint=eastwest;rounded=0;shadow=0;html=0;" parent="wSJQeO-UcG-I0Lwt5dV8-1" vertex="1">
          <mxGeometry y="78" width="230" height="26" as="geometry" />
        </mxCell>
        <mxCell id="wSJQeO-UcG-I0Lwt5dV8-6" value="password : VARCHAR(255) NOT NULL" style="text;align=left;verticalAlign=top;spacingLeft=4;spacingRight=4;overflow=hidden;rotatable=0;points=[[0,0.5],[1,0.5]];portConstraint=eastwest;rounded=0;shadow=0;html=0;" parent="wSJQeO-UcG-I0Lwt5dV8-1" vertex="1">
          <mxGeometry y="104" width="230" height="26" as="geometry" />
        </mxCell>
        <mxCell id="68ZVeWhFToLrWKEUK0En-2" value="role : JSON NOT NULL" style="text;align=left;verticalAlign=top;spacingLeft=4;spacingRight=4;overflow=hidden;rotatable=0;points=[[0,0.5],[1,0.5]];portConstraint=eastwest;rounded=0;shadow=0;html=0;" parent="wSJQeO-UcG-I0Lwt5dV8-1" vertex="1">
          <mxGeometry y="130" width="230" height="26" as="geometry" />
        </mxCell>
        <mxCell id="68ZVeWhFToLrWKEUK0En-3" value="is_verified : Boolean NOT NULL" style="text;align=left;verticalAlign=top;spacingLeft=4;spacingRight=4;overflow=hidden;rotatable=0;points=[[0,0.5],[1,0.5]];portConstraint=eastwest;rounded=0;shadow=0;html=0;" parent="wSJQeO-UcG-I0Lwt5dV8-1" vertex="1">
          <mxGeometry y="156" width="230" height="26" as="geometry" />
        </mxCell>
        <mxCell id="wSJQeO-UcG-I0Lwt5dV8-7" value="Comment" style="swimlane;fontStyle=1;align=center;verticalAlign=top;childLayout=stackLayout;horizontal=1;startSize=26;horizontalStack=0;resizeParent=1;resizeParentMax=0;resizeLast=0;collapsible=1;marginBottom=0;whiteSpace=wrap;html=1;" parent="1" vertex="1">
          <mxGeometry x="526" y="-79" width="225" height="180" as="geometry" />
        </mxCell>
        <mxCell id="wSJQeO-UcG-I0Lwt5dV8-91" value="&lt;span style=&quot;color: rgb(240, 240, 240); font-family: Helvetica; font-size: 12px; font-style: normal; font-variant-ligatures: normal; font-variant-caps: normal; font-weight: 400; letter-spacing: normal; orphans: 2; text-align: left; text-indent: 0px; text-transform: none; widows: 2; word-spacing: 0px; -webkit-text-stroke-width: 0px; background-color: rgb(27, 29, 30); text-decoration-thickness: initial; text-decoration-style: initial; text-decoration-color: initial; float: none; display: inline !important;&quot;&gt;&amp;nbsp;id : INT NOT NULL &amp;lt;pk, ak&amp;gt;&lt;/span&gt;" style="text;whiteSpace=wrap;html=1;" parent="wSJQeO-UcG-I0Lwt5dV8-7" vertex="1">
          <mxGeometry y="26" width="225" height="24" as="geometry" />
        </mxCell>
        <mxCell id="wSJQeO-UcG-I0Lwt5dV8-194" value="user_id : INT NOT NULL &lt;fk&gt;" style="text;align=left;verticalAlign=top;spacingLeft=4;spacingRight=4;overflow=hidden;rotatable=0;points=[[0,0.5],[1,0.5]];portConstraint=eastwest;rounded=0;shadow=0;html=0;" parent="wSJQeO-UcG-I0Lwt5dV8-7" vertex="1">
          <mxGeometry y="50" width="225" height="26" as="geometry" />
        </mxCell>
        <mxCell id="wEASyZmdqa7ha7NtMicC-4" value="tricks_id : INT NOT NULL &lt;fk&gt;" style="text;align=left;verticalAlign=top;spacingLeft=4;spacingRight=4;overflow=hidden;rotatable=0;points=[[0,0.5],[1,0.5]];portConstraint=eastwest;rounded=0;shadow=0;html=0;" parent="wSJQeO-UcG-I0Lwt5dV8-7" vertex="1">
          <mxGeometry y="76" width="225" height="26" as="geometry" />
        </mxCell>
        <mxCell id="wSJQeO-UcG-I0Lwt5dV8-8" value="created_at : DATETIME NOT NULL" style="text;strokeColor=none;fillColor=none;align=left;verticalAlign=top;spacingLeft=4;spacingRight=4;overflow=hidden;rotatable=0;points=[[0,0.5],[1,0.5]];portConstraint=eastwest;whiteSpace=wrap;html=1;" parent="wSJQeO-UcG-I0Lwt5dV8-7" vertex="1">
          <mxGeometry y="102" width="225" height="26" as="geometry" />
        </mxCell>
        <mxCell id="wSJQeO-UcG-I0Lwt5dV8-9" value="updated_at : DATETIME" style="text;strokeColor=none;fillColor=none;align=left;verticalAlign=top;spacingLeft=4;spacingRight=4;overflow=hidden;rotatable=0;points=[[0,0.5],[1,0.5]];portConstraint=eastwest;whiteSpace=wrap;html=1;" parent="wSJQeO-UcG-I0Lwt5dV8-7" vertex="1">
          <mxGeometry y="128" width="225" height="26" as="geometry" />
        </mxCell>
        <mxCell id="wSJQeO-UcG-I0Lwt5dV8-10" value="content : VARCHAR(1000) NOT NULL" style="text;strokeColor=none;fillColor=none;align=left;verticalAlign=top;spacingLeft=4;spacingRight=4;overflow=hidden;rotatable=0;points=[[0,0.5],[1,0.5]];portConstraint=eastwest;whiteSpace=wrap;html=1;" parent="wSJQeO-UcG-I0Lwt5dV8-7" vertex="1">
          <mxGeometry y="154" width="225" height="26" as="geometry" />
        </mxCell>
        <mxCell id="wSJQeO-UcG-I0Lwt5dV8-12" value="" style="line;strokeWidth=1;fillColor=none;align=left;verticalAlign=middle;spacingTop=-1;spacingLeft=3;spacingRight=3;rotatable=0;labelPosition=right;points=[];portConstraint=eastwest;strokeColor=inherit;" parent="wSJQeO-UcG-I0Lwt5dV8-7" vertex="1">
          <mxGeometry y="180" width="225" as="geometry" />
        </mxCell>
        <mxCell id="wSJQeO-UcG-I0Lwt5dV8-16" value="Tricks" style="swimlane;fontStyle=1;align=center;verticalAlign=top;childLayout=stackLayout;horizontal=1;startSize=26;horizontalStack=0;resizeParent=1;resizeParentMax=0;resizeLast=0;collapsible=1;marginBottom=0;whiteSpace=wrap;html=1;" parent="1" vertex="1">
          <mxGeometry x="852" y="209" width="280" height="254" as="geometry" />
        </mxCell>
        <mxCell id="wSJQeO-UcG-I0Lwt5dV8-93" value="id : INT NOT NULL &lt;pk, ak&gt;" style="text;align=left;verticalAlign=top;spacingLeft=4;spacingRight=4;overflow=hidden;rotatable=0;points=[[0,0.5],[1,0.5]];portConstraint=eastwest;rounded=0;shadow=0;html=0;" parent="wSJQeO-UcG-I0Lwt5dV8-16" vertex="1">
          <mxGeometry y="26" width="280" height="26" as="geometry" />
        </mxCell>
        <mxCell id="68ZVeWhFToLrWKEUK0En-4" value="user_id : INT NOT NULL &lt;fk&gt;" style="text;align=left;verticalAlign=top;spacingLeft=4;spacingRight=4;overflow=hidden;rotatable=0;points=[[0,0.5],[1,0.5]];portConstraint=eastwest;rounded=0;shadow=0;html=0;" parent="wSJQeO-UcG-I0Lwt5dV8-16" vertex="1">
          <mxGeometry y="52" width="280" height="26" as="geometry" />
        </mxCell>
        <mxCell id="me3Cbut-kszKsVXaT1vR-16" value="category_id : INT NOT NULL &lt;fk&gt;" style="text;align=left;verticalAlign=top;spacingLeft=4;spacingRight=4;overflow=hidden;rotatable=0;points=[[0,0.5],[1,0.5]];portConstraint=eastwest;rounded=0;shadow=0;html=0;" parent="wSJQeO-UcG-I0Lwt5dV8-16" vertex="1">
          <mxGeometry y="78" width="280" height="26" as="geometry" />
        </mxCell>
        <mxCell id="wSJQeO-UcG-I0Lwt5dV8-195" value="title : VARCHAR(255) NOT NULL &lt;U&gt;" style="text;align=left;verticalAlign=top;spacingLeft=4;spacingRight=4;overflow=hidden;rotatable=0;points=[[0,0.5],[1,0.5]];portConstraint=eastwest;rounded=0;shadow=0;html=0;" parent="wSJQeO-UcG-I0Lwt5dV8-16" vertex="1">
          <mxGeometry y="104" width="280" height="26" as="geometry" />
        </mxCell>
        <mxCell id="68ZVeWhFToLrWKEUK0En-6" value="created_at : DATETIME NOT NULL" style="text;strokeColor=none;fillColor=none;align=left;verticalAlign=top;spacingLeft=4;spacingRight=4;overflow=hidden;rotatable=0;points=[[0,0.5],[1,0.5]];portConstraint=eastwest;whiteSpace=wrap;html=1;" parent="wSJQeO-UcG-I0Lwt5dV8-16" vertex="1">
          <mxGeometry y="130" width="280" height="26" as="geometry" />
        </mxCell>
        <mxCell id="68ZVeWhFToLrWKEUK0En-7" value="updated_at : DATETIME" style="text;strokeColor=none;fillColor=none;align=left;verticalAlign=top;spacingLeft=4;spacingRight=4;overflow=hidden;rotatable=0;points=[[0,0.5],[1,0.5]];portConstraint=eastwest;whiteSpace=wrap;html=1;" parent="wSJQeO-UcG-I0Lwt5dV8-16" vertex="1">
          <mxGeometry y="156" width="280" height="26" as="geometry" />
        </mxCell>
        <mxCell id="wSJQeO-UcG-I0Lwt5dV8-17" value="&amp;nbsp;content : TEXT NOT NULL" style="text;whiteSpace=wrap;html=1;" parent="wSJQeO-UcG-I0Lwt5dV8-16" vertex="1">
          <mxGeometry y="182" width="280" height="24" as="geometry" />
        </mxCell>
        <mxCell id="FJUUJwDqwDEzb4EUCaqB-1" value="&amp;nbsp;summary&amp;nbsp;: VARCHAR(255) NOT NULL" style="text;whiteSpace=wrap;html=1;" parent="wSJQeO-UcG-I0Lwt5dV8-16" vertex="1">
          <mxGeometry y="206" width="280" height="24" as="geometry" />
        </mxCell>
        <mxCell id="FJUUJwDqwDEzb4EUCaqB-2" value="&amp;nbsp;slug : VARCHAR(255) NOT NULL" style="text;whiteSpace=wrap;html=1;" parent="wSJQeO-UcG-I0Lwt5dV8-16" vertex="1">
          <mxGeometry y="230" width="280" height="24" as="geometry" />
        </mxCell>
        <mxCell id="wSJQeO-UcG-I0Lwt5dV8-54" value="Picture" style="swimlane;fontStyle=1;align=center;verticalAlign=top;childLayout=stackLayout;horizontal=1;startSize=26;horizontalStack=0;resizeParent=1;resizeParentMax=0;resizeLast=0;collapsible=1;marginBottom=0;whiteSpace=wrap;html=1;" parent="1" vertex="1">
          <mxGeometry x="579" y="552" width="284" height="182" as="geometry" />
        </mxCell>
        <mxCell id="wSJQeO-UcG-I0Lwt5dV8-94" value="id : INT NOT NULL &lt;pk, ak&gt;" style="text;align=left;verticalAlign=top;spacingLeft=4;spacingRight=4;overflow=hidden;rotatable=0;points=[[0,0.5],[1,0.5]];portConstraint=eastwest;rounded=0;shadow=0;html=0;" parent="wSJQeO-UcG-I0Lwt5dV8-54" vertex="1">
          <mxGeometry y="26" width="284" height="26" as="geometry" />
        </mxCell>
        <mxCell id="wSJQeO-UcG-I0Lwt5dV8-191" value="tricks_id : INT NOT NULL &lt;fk&gt;" style="text;align=left;verticalAlign=top;spacingLeft=4;spacingRight=4;overflow=hidden;rotatable=0;points=[[0,0.5],[1,0.5]];portConstraint=eastwest;rounded=0;shadow=0;html=0;" parent="wSJQeO-UcG-I0Lwt5dV8-54" vertex="1">
          <mxGeometry y="52" width="284" height="26" as="geometry" />
        </mxCell>
        <mxCell id="3zqt6-ExK5oYoHGeEBF7-2" value="filename : VARCHAR(255) NOT NULL" style="text;align=left;verticalAlign=top;spacingLeft=4;spacingRight=4;overflow=hidden;rotatable=0;points=[[0,0.5],[1,0.5]];portConstraint=eastwest;rounded=0;shadow=0;html=0;" parent="wSJQeO-UcG-I0Lwt5dV8-54" vertex="1">
          <mxGeometry y="78" width="284" height="26" as="geometry" />
        </mxCell>
        <mxCell id="3zqt6-ExK5oYoHGeEBF7-1" value="created_at : DATETIME NOT NULL" style="text;strokeColor=none;fillColor=none;align=left;verticalAlign=top;spacingLeft=4;spacingRight=4;overflow=hidden;rotatable=0;points=[[0,0.5],[1,0.5]];portConstraint=eastwest;whiteSpace=wrap;html=1;" parent="wSJQeO-UcG-I0Lwt5dV8-54" vertex="1">
          <mxGeometry y="104" width="284" height="26" as="geometry" />
        </mxCell>
        <mxCell id="wEASyZmdqa7ha7NtMicC-5" value="updated_at : DATETIME NOT NULL" style="text;strokeColor=none;fillColor=none;align=left;verticalAlign=top;spacingLeft=4;spacingRight=4;overflow=hidden;rotatable=0;points=[[0,0.5],[1,0.5]];portConstraint=eastwest;whiteSpace=wrap;html=1;" parent="wSJQeO-UcG-I0Lwt5dV8-54" vertex="1">
          <mxGeometry y="130" width="284" height="26" as="geometry" />
        </mxCell>
        <mxCell id="3zqt6-ExK5oYoHGeEBF7-3" value="header : Boolean NOT NULL" style="text;strokeColor=none;fillColor=none;align=left;verticalAlign=top;spacingLeft=4;spacingRight=4;overflow=hidden;rotatable=0;points=[[0,0.5],[1,0.5]];portConstraint=eastwest;whiteSpace=wrap;html=1;" parent="wSJQeO-UcG-I0Lwt5dV8-54" vertex="1">
          <mxGeometry y="156" width="284" height="26" as="geometry" />
        </mxCell>
        <mxCell id="wSJQeO-UcG-I0Lwt5dV8-83" value="" style="fontSize=12;html=1;endArrow=ERzeroToMany;startArrow=ERmandOne;rounded=0;exitX=1;exitY=0;exitDx=0;exitDy=0;entryX=0;entryY=0;entryDx=0;entryDy=0;" parent="1" source="wSJQeO-UcG-I0Lwt5dV8-1" target="wSJQeO-UcG-I0Lwt5dV8-16" edge="1">
          <mxGeometry width="100" height="100" relative="1" as="geometry">
            <mxPoint x="535" y="130" as="sourcePoint" />
            <mxPoint x="635" y="30" as="targetPoint" />
          </mxGeometry>
        </mxCell>
        <mxCell id="wSJQeO-UcG-I0Lwt5dV8-84" value="" style="fontSize=12;html=1;endArrow=ERzeroToMany;startArrow=ERmandOne;rounded=0;entryX=1;entryY=0;entryDx=0;entryDy=0;edgeStyle=orthogonalEdgeStyle;exitX=1;exitY=0;exitDx=0;exitDy=0;" parent="1" source="wSJQeO-UcG-I0Lwt5dV8-16" target="wSJQeO-UcG-I0Lwt5dV8-7" edge="1">
          <mxGeometry width="100" height="100" relative="1" as="geometry">
            <mxPoint x="1261" y="96" as="sourcePoint" />
            <mxPoint x="960" y="-130" as="targetPoint" />
            <Array as="points">
              <mxPoint x="1132" y="-79" />
            </Array>
          </mxGeometry>
        </mxCell>
        <mxCell id="68ZVeWhFToLrWKEUK0En-1" value="" style="fontSize=12;html=1;endArrow=ERzeroToMany;startArrow=ERmandOne;rounded=0;exitX=0.5;exitY=0;exitDx=0;exitDy=0;entryX=0;entryY=0;entryDx=0;entryDy=0;" parent="1" source="wSJQeO-UcG-I0Lwt5dV8-1" target="wSJQeO-UcG-I0Lwt5dV8-7" edge="1">
          <mxGeometry width="100" height="100" relative="1" as="geometry">
            <mxPoint x="91" y="-252" as="sourcePoint" />
            <mxPoint x="601" y="-252" as="targetPoint" />
            <Array as="points">
              <mxPoint x="225" y="-76" />
            </Array>
          </mxGeometry>
        </mxCell>
        <mxCell id="68ZVeWhFToLrWKEUK0En-5" value="" style="fontSize=12;html=1;endArrow=ERzeroToMany;startArrow=ERmandOne;rounded=0;entryX=0.5;entryY=0;entryDx=0;entryDy=0;exitX=0.5;exitY=1;exitDx=0;exitDy=0;edgeStyle=orthogonalEdgeStyle;" parent="1" source="FJUUJwDqwDEzb4EUCaqB-2" target="wSJQeO-UcG-I0Lwt5dV8-54" edge="1">
          <mxGeometry width="100" height="100" relative="1" as="geometry">
            <mxPoint x="990" y="393" as="sourcePoint" />
            <mxPoint x="1644" y="546" as="targetPoint" />
          </mxGeometry>
        </mxCell>
        <mxCell id="me3Cbut-kszKsVXaT1vR-2" value="Video" style="swimlane;fontStyle=1;align=center;verticalAlign=top;childLayout=stackLayout;horizontal=1;startSize=26;horizontalStack=0;resizeParent=1;resizeParentMax=0;resizeLast=0;collapsible=1;marginBottom=0;whiteSpace=wrap;html=1;" parent="1" vertex="1">
          <mxGeometry x="1165" y="564" width="284" height="156" as="geometry" />
        </mxCell>
        <mxCell id="me3Cbut-kszKsVXaT1vR-3" value="id : INT NOT NULL &lt;pk, ak&gt;" style="text;align=left;verticalAlign=top;spacingLeft=4;spacingRight=4;overflow=hidden;rotatable=0;points=[[0,0.5],[1,0.5]];portConstraint=eastwest;rounded=0;shadow=0;html=0;" parent="me3Cbut-kszKsVXaT1vR-2" vertex="1">
          <mxGeometry y="26" width="284" height="26" as="geometry" />
        </mxCell>
        <mxCell id="me3Cbut-kszKsVXaT1vR-4" value="tricks_id : INT NOT NULL &lt;fk&gt;" style="text;align=left;verticalAlign=top;spacingLeft=4;spacingRight=4;overflow=hidden;rotatable=0;points=[[0,0.5],[1,0.5]];portConstraint=eastwest;rounded=0;shadow=0;html=0;" parent="me3Cbut-kszKsVXaT1vR-2" vertex="1">
          <mxGeometry y="52" width="284" height="26" as="geometry" />
        </mxCell>
        <mxCell id="wEASyZmdqa7ha7NtMicC-2" value="video_host: VARCHAR(255) NOT NULL" style="text;align=left;verticalAlign=top;spacingLeft=4;spacingRight=4;overflow=hidden;rotatable=0;points=[[0,0.5],[1,0.5]];portConstraint=eastwest;rounded=0;shadow=0;html=0;" parent="me3Cbut-kszKsVXaT1vR-2" vertex="1">
          <mxGeometry y="78" width="284" height="26" as="geometry" />
        </mxCell>
        <mxCell id="wEASyZmdqa7ha7NtMicC-3" value="video_id: VARCHAR(255) NOT NULL" style="text;align=left;verticalAlign=top;spacingLeft=4;spacingRight=4;overflow=hidden;rotatable=0;points=[[0,0.5],[1,0.5]];portConstraint=eastwest;rounded=0;shadow=0;html=0;" parent="me3Cbut-kszKsVXaT1vR-2" vertex="1">
          <mxGeometry y="104" width="284" height="26" as="geometry" />
        </mxCell>
        <mxCell id="me3Cbut-kszKsVXaT1vR-9" value="embed_url : VARCHAR(1024) NOT NULL" style="text;align=left;verticalAlign=top;spacingLeft=4;spacingRight=4;overflow=hidden;rotatable=0;points=[[0,0.5],[1,0.5]];portConstraint=eastwest;rounded=0;shadow=0;html=0;" parent="me3Cbut-kszKsVXaT1vR-2" vertex="1">
          <mxGeometry y="130" width="284" height="26" as="geometry" />
        </mxCell>
        <mxCell id="me3Cbut-kszKsVXaT1vR-10" value="" style="fontSize=12;html=1;endArrow=ERzeroToMany;startArrow=ERmandOne;rounded=0;entryX=0.5;entryY=0;entryDx=0;entryDy=0;exitX=0.5;exitY=1;exitDx=0;exitDy=0;edgeStyle=orthogonalEdgeStyle;" parent="1" source="FJUUJwDqwDEzb4EUCaqB-2" target="me3Cbut-kszKsVXaT1vR-2" edge="1">
          <mxGeometry width="100" height="100" relative="1" as="geometry">
            <mxPoint x="1298" y="544" as="sourcePoint" />
            <mxPoint x="1027" y="659" as="targetPoint" />
            <Array as="points">
              <mxPoint x="992" y="507" />
              <mxPoint x="1307" y="507" />
            </Array>
          </mxGeometry>
        </mxCell>
        <mxCell id="me3Cbut-kszKsVXaT1vR-11" value="Category" style="swimlane;fontStyle=1;align=center;verticalAlign=top;childLayout=stackLayout;horizontal=1;startSize=26;horizontalStack=0;resizeParent=1;resizeParentMax=0;resizeLast=0;collapsible=1;marginBottom=0;whiteSpace=wrap;html=1;" parent="1" vertex="1">
          <mxGeometry x="1298" y="235" width="227" height="128" as="geometry" />
        </mxCell>
        <mxCell id="me3Cbut-kszKsVXaT1vR-15" value="id : INT NOT NULL &lt;pk, ak&gt;" style="text;align=left;verticalAlign=top;spacingLeft=4;spacingRight=4;overflow=hidden;rotatable=0;points=[[0,0.5],[1,0.5]];portConstraint=eastwest;rounded=0;shadow=0;html=0;" parent="me3Cbut-kszKsVXaT1vR-11" vertex="1">
          <mxGeometry y="26" width="227" height="26" as="geometry" />
        </mxCell>
        <mxCell id="me3Cbut-kszKsVXaT1vR-5" value="created_at : DATETIME NOT NULL" style="text;strokeColor=none;fillColor=none;align=left;verticalAlign=top;spacingLeft=4;spacingRight=4;overflow=hidden;rotatable=0;points=[[0,0.5],[1,0.5]];portConstraint=eastwest;whiteSpace=wrap;html=1;" parent="me3Cbut-kszKsVXaT1vR-11" vertex="1">
          <mxGeometry y="52" width="227" height="26" as="geometry" />
        </mxCell>
        <mxCell id="me3Cbut-kszKsVXaT1vR-6" value="name : VARCHAR(255) NOT NULL &lt;U&gt;" style="text;align=left;verticalAlign=top;spacingLeft=4;spacingRight=4;overflow=hidden;rotatable=0;points=[[0,0.5],[1,0.5]];portConstraint=eastwest;rounded=0;shadow=0;html=0;" parent="me3Cbut-kszKsVXaT1vR-11" vertex="1">
          <mxGeometry y="78" width="227" height="26" as="geometry" />
        </mxCell>
        <mxCell id="me3Cbut-kszKsVXaT1vR-8" value="&amp;nbsp;slug : VARCHAR(255) NOT NULL" style="text;whiteSpace=wrap;html=1;" parent="me3Cbut-kszKsVXaT1vR-11" vertex="1">
          <mxGeometry y="104" width="227" height="24" as="geometry" />
        </mxCell>
        <mxCell id="me3Cbut-kszKsVXaT1vR-18" value="" style="fontSize=12;html=1;endArrow=ERzeroToMany;startArrow=ERmandOne;rounded=0;exitX=0;exitY=0.5;exitDx=0;exitDy=0;" parent="1" source="me3Cbut-kszKsVXaT1vR-5" target="me3Cbut-kszKsVXaT1vR-16" edge="1">
          <mxGeometry width="100" height="100" relative="1" as="geometry">
            <mxPoint x="1165" y="70" as="sourcePoint" />
            <mxPoint x="1677" y="68" as="targetPoint" />
          </mxGeometry>
        </mxCell>
      </root>
    </mxGraphModel>
  </diagram>
</mxfile>
